<?xml version="1.0" encoding="UTF-8" standalone="no"?>
<!DOCTYPE svg PUBLIC "-//W3C//DTD SVG 1.1//EN"
 "http://www.w3.org/Graphics/SVG/1.1/DTD/svg11.dtd">
<!-- Generated by graphviz version 2.40.1 (20161225.0304)
 -->
<!-- Title: G Pages: 1 -->
<svg width="419pt" height="474pt"
 viewBox="0.00 0.00 418.56 473.67" xmlns="http://www.w3.org/2000/svg" xmlns:xlink="http://www.w3.org/1999/xlink">
<g id="graph0" class="graph" transform="scale(1 1) rotate(0) translate(4 469.6711)">
<title>G</title>
<polygon fill="#ffffff" stroke="transparent" points="-4,4 -4,-469.6711 414.556,-469.6711 414.556,4 -4,4"/>
<!-- tools_csv_importer_filename_checker -->
<g id="node1" class="node">
<title>tools_csv_importer_filename_checker</title>
<ellipse fill="#b83d3d" stroke="#000000" cx="65.7609" cy="-279.8269" rx="65.5227" ry="28.9828"/>
<text text-anchor="middle" x="65.7609" y="-288.3269" font-family="Helvetica,sans-Serif" font-size="10.00" fill="#ffffff">tools.</text>
<text text-anchor="middle" x="65.7609" y="-277.3269" font-family="Helvetica,sans-Serif" font-size="10.00" fill="#ffffff">csv_importer.</text>
<text text-anchor="middle" x="65.7609" y="-266.3269" font-family="Helvetica,sans-Serif" font-size="10.00" fill="#ffffff">filename_checker</text>
</g>
<!-- tools_controller -->
<g id="node2" class="node">
<title>tools_controller</title>
<ellipse fill="#8f3d3d" stroke="#000000" cx="239.7609" cy="-115.196" rx="39.6962" ry="21.4286"/>
<text text-anchor="middle" x="239.7609" y="-118.196" font-family="Helvetica,sans-Serif" font-size="10.00" fill="#ffffff">tools.</text>
<text text-anchor="middle" x="239.7609" y="-107.196" font-family="Helvetica,sans-Serif" font-size="10.00" fill="#ffffff">controller</text>
</g>
<!-- tools_csv_importer_filename_checker&#45;&gt;tools_controller -->
<g id="edge1" class="edge">
<title>tools_csv_importer_filename_checker&#45;&gt;tools_controller</title>
<path fill="none" stroke="#000000" d="M99.0449,-254.4236C118.4345,-238.4572 142.4034,-216.5861 159.7609,-193.6224"/>
<path fill="none" stroke="#000000" d="M159.7609,-193.6224C174.5767,-174.0214 194.2511,-154.6676 210.3812,-140.0902"/>
<polygon fill="#000000" stroke="#000000" points="212.8292,-142.597 217.9781,-133.3375 208.1787,-137.3651 212.8292,-142.597"/>
</g>
<!-- tools_csv_dir_info -->
<g id="node3" class="node">
<title>tools_csv_dir_info</title>
<ellipse fill="#b83d3d" stroke="#000000" cx="159.7609" cy="-366.0315" rx="48.5816" ry="21.4286"/>
<text text-anchor="middle" x="159.7609" y="-369.0315" font-family="Helvetica,sans-Serif" font-size="10.00" fill="#ffffff">tools.</text>
<text text-anchor="middle" x="159.7609" y="-358.0315" font-family="Helvetica,sans-Serif" font-size="10.00" fill="#ffffff">csv_dir_info</text>
</g>
<!-- tools_csv_dir_info&#45;&gt;tools_controller -->
<g id="edge2" class="edge">
<title>tools_csv_dir_info&#45;&gt;tools_controller</title>
<path fill="none" stroke="#000000" d="M157.2954,-344.5158C155.8647,-326.9172 155.1432,-301.49 159.7609,-279.8269"/>
</g>
<!-- tools_logging -->
<g id="node4" class="node">
<title>tools_logging</title>
<ellipse fill="#d92626" stroke="#000000" cx="350.7609" cy="-193.6224" rx="41.5911" ry="18"/>
<text text-anchor="middle" x="350.7609" y="-191.1224" font-family="Helvetica,sans-Serif" font-size="10.00" fill="#ffffff">tools.logging</text>
</g>
<!-- tools_logging&#45;&gt;tools_controller -->
<g id="edge3" class="edge">
<title>tools_logging&#45;&gt;tools_controller</title>
<path fill="none" stroke="#000000" d="M328.8309,-178.1278C312.7592,-166.7724 290.6715,-151.1665 272.5126,-138.3365"/>
<polygon fill="#000000" stroke="#000000" points="274.1443,-135.2039 263.9575,-132.2919 270.105,-140.9209 274.1443,-135.2039"/>
</g>
<!-- tools_logging&#45;&gt;tools_logging -->
<g id="edge8" class="edge">
<title>tools_logging&#45;&gt;tools_logging</title>
<path fill="none" stroke="#000000" d="M378.1292,-207.2753C394.7891,-210.437 410.556,-205.886 410.556,-193.6224 410.556,-183.9456 400.7392,-179.0708 388.413,-178.9982"/>
<polygon fill="#000000" stroke="#000000" points="387.7558,-175.5446 378.1292,-179.9695 388.414,-182.5136 387.7558,-175.5446"/>
</g>
<!-- tools_csv_importer_check_result -->
<g id="node7" class="node">
<title>tools_csv_importer_check_result</title>
<ellipse fill="#ac4949" stroke="#000000" cx="350.7609" cy="-28.9914" rx="53.9813" ry="28.9828"/>
<text text-anchor="middle" x="350.7609" y="-37.4914" font-family="Helvetica,sans-Serif" font-size="10.00" fill="#ffffff">tools.</text>
<text text-anchor="middle" x="350.7609" y="-26.4914" font-family="Helvetica,sans-Serif" font-size="10.00" fill="#ffffff">csv_importer.</text>
<text text-anchor="middle" x="350.7609" y="-15.4914" font-family="Helvetica,sans-Serif" font-size="10.00" fill="#ffffff">check_result</text>
</g>
<!-- tools_logging&#45;&gt;tools_csv_importer_check_result -->
<g id="edge9" class="edge">
<title>tools_logging&#45;&gt;tools_csv_importer_check_result</title>
<path fill="none" stroke="#000000" d="M350.7609,-175.3749C350.7609,-149.6552 350.7609,-102.0965 350.7609,-68.1674"/>
<polygon fill="#000000" stroke="#000000" points="354.261,-68.1145 350.7609,-58.1146 347.261,-68.1146 354.261,-68.1145"/>
</g>
<!-- tools_constants -->
<g id="node5" class="node">
<title>tools_constants</title>
<ellipse fill="#db2f2f" stroke="#000000" cx="120.7609" cy="-444.4579" rx="41.9398" ry="21.4286"/>
<text text-anchor="middle" x="120.7609" y="-447.4579" font-family="Helvetica,sans-Serif" font-size="10.00" fill="#ffffff">tools.</text>
<text text-anchor="middle" x="120.7609" y="-436.4579" font-family="Helvetica,sans-Serif" font-size="10.00" fill="#ffffff">constants</text>
</g>
<!-- tools_constants&#45;&gt;tools_csv_importer_filename_checker -->
<g id="edge6" class="edge">
<title>tools_constants&#45;&gt;tools_csv_importer_filename_checker</title>
<path fill="none" stroke="#000000" d="M105.6085,-424.4121C95.5647,-409.2637 84.0095,-387.4795 82.7609,-366.0315"/>
<path fill="none" stroke="#000000" d="M82.7609,-366.0315C81.8462,-350.3176 78.9068,-333.2658 75.7237,-318.5077"/>
<polygon fill="#000000" stroke="#000000" points="79.1253,-317.6815 73.5029,-308.7016 72.2982,-319.2277 79.1253,-317.6815"/>
</g>
<!-- tools_constants&#45;&gt;tools_controller -->
<g id="edge4" class="edge">
<title>tools_constants&#45;&gt;tools_controller</title>
<path fill="none" stroke="#000000" d="M82.7609,-366.0315C79.7755,-314.7466 149.0512,-330.0699 159.7609,-279.8269"/>
<path fill="none" stroke="#000000" d="M159.7609,-279.8269C167.7483,-242.3556 136.6584,-224.1866 159.7609,-193.6224"/>
</g>
<!-- tools_constants&#45;&gt;tools_csv_dir_info -->
<g id="edge7" class="edge">
<title>tools_constants&#45;&gt;tools_csv_dir_info</title>
<path fill="none" stroke="#000000" d="M131.0077,-423.8523C135.2732,-415.2748 140.3075,-405.151 144.962,-395.7913"/>
<polygon fill="#000000" stroke="#000000" points="148.1284,-397.2843 149.4472,-386.7718 141.8606,-394.1674 148.1284,-397.2843"/>
</g>
<!-- tools_csv_importer -->
<g id="node6" class="node">
<title>tools_csv_importer</title>
<ellipse fill="#c24747" stroke="#000000" cx="239.7609" cy="-193.6224" rx="51.7379" ry="21.4286"/>
<text text-anchor="middle" x="239.7609" y="-196.6224" font-family="Helvetica,sans-Serif" font-size="10.00" fill="#ffffff">tools.</text>
<text text-anchor="middle" x="239.7609" y="-185.6224" font-family="Helvetica,sans-Serif" font-size="10.00" fill="#ffffff">csv_importer</text>
</g>
<!-- tools_csv_importer&#45;&gt;tools_controller -->
<g id="edge5" class="edge">
<title>tools_csv_importer&#45;&gt;tools_controller</title>
<path fill="none" stroke="#000000" d="M239.7609,-172.192C239.7609,-164.3247 239.7609,-155.2458 239.7609,-146.6795"/>
<polygon fill="#000000" stroke="#000000" points="243.261,-146.6004 239.7609,-136.6004 236.261,-146.6004 243.261,-146.6004"/>
</g>
</g>
</svg>
