<?xml version="1.0" encoding="UTF-8" standalone="no"?>
<!DOCTYPE svg PUBLIC "-//W3C//DTD SVG 1.1//EN"
 "http://www.w3.org/Graphics/SVG/1.1/DTD/svg11.dtd">
<!-- Generated by graphviz version 2.40.1 (20161225.0304)
 -->
<!-- Title: G Pages: 1 -->
<svg width="313pt" height="223pt"
 viewBox="0.00 0.00 312.56 222.84" xmlns="http://www.w3.org/2000/svg" xmlns:xlink="http://www.w3.org/1999/xlink">
<g id="graph0" class="graph" transform="scale(1 1) rotate(0) translate(4 218.8356)">
<title>G</title>
<polygon fill="#ffffff" stroke="transparent" points="-4,4 -4,-218.8356 308.556,-218.8356 308.556,4 -4,4"/>
<!-- tools_constants -->
<g id="node1" class="node">
<title>tools_constants</title>
<ellipse fill="#ce3b3b" stroke="#000000" cx="116.7609" cy="-193.6224" rx="41.9398" ry="21.4286"/>
<text text-anchor="middle" x="116.7609" y="-196.6224" font-family="Helvetica,sans-Serif" font-size="10.00" fill="#ffffff">tools.</text>
<text text-anchor="middle" x="116.7609" y="-185.6224" font-family="Helvetica,sans-Serif" font-size="10.00" fill="#ffffff">constants</text>
</g>
<!-- tools_csv_importer_filename_checker -->
<g id="node2" class="node">
<title>tools_csv_importer_filename_checker</title>
<ellipse fill="#ac4949" stroke="#000000" cx="65.7609" cy="-28.9914" rx="65.5227" ry="28.9828"/>
<text text-anchor="middle" x="65.7609" y="-37.4914" font-family="Helvetica,sans-Serif" font-size="10.00" fill="#ffffff">tools.</text>
<text text-anchor="middle" x="65.7609" y="-26.4914" font-family="Helvetica,sans-Serif" font-size="10.00" fill="#ffffff">csv_importer.</text>
<text text-anchor="middle" x="65.7609" y="-15.4914" font-family="Helvetica,sans-Serif" font-size="10.00" fill="#ffffff">filename_checker</text>
</g>
<!-- tools_constants&#45;&gt;tools_csv_importer_filename_checker -->
<g id="edge1" class="edge">
<title>tools_constants&#45;&gt;tools_csv_importer_filename_checker</title>
<path fill="none" stroke="#000000" d="M103.3083,-173.4929C96.7879,-162.8712 89.386,-149.3802 84.7609,-136.4092 76.9799,-114.5872 72.2967,-89.0921 69.5274,-68.4173"/>
<polygon fill="#000000" stroke="#000000" points="72.9882,-67.8843 68.2821,-58.3921 66.0416,-68.7473 72.9882,-67.8843"/>
</g>
<!-- tools_csv_dir_info -->
<g id="node3" class="node">
<title>tools_csv_dir_info</title>
<ellipse fill="#ac4949" stroke="#000000" cx="142.7609" cy="-115.196" rx="48.5816" ry="21.4286"/>
<text text-anchor="middle" x="142.7609" y="-118.196" font-family="Helvetica,sans-Serif" font-size="10.00" fill="#ffffff">tools.</text>
<text text-anchor="middle" x="142.7609" y="-107.196" font-family="Helvetica,sans-Serif" font-size="10.00" fill="#ffffff">csv_dir_info</text>
</g>
<!-- tools_constants&#45;&gt;tools_csv_dir_info -->
<g id="edge2" class="edge">
<title>tools_constants&#45;&gt;tools_csv_dir_info</title>
<path fill="none" stroke="#000000" d="M123.7285,-172.6055C126.4388,-164.4299 129.5987,-154.8984 132.5561,-145.9779"/>
<polygon fill="#000000" stroke="#000000" points="135.9495,-146.8642 135.7742,-136.2708 129.3051,-144.6614 135.9495,-146.8642"/>
</g>
<!-- tools_logging -->
<g id="node4" class="node">
<title>tools_logging</title>
<ellipse fill="#cc3333" stroke="#000000" cx="244.7609" cy="-193.6224" rx="41.5911" ry="18"/>
<text text-anchor="middle" x="244.7609" y="-191.1224" font-family="Helvetica,sans-Serif" font-size="10.00" fill="#ffffff">tools.logging</text>
</g>
<!-- tools_logging&#45;&gt;tools_logging -->
<g id="edge3" class="edge">
<title>tools_logging&#45;&gt;tools_logging</title>
<path fill="none" stroke="#000000" d="M272.1292,-207.2753C288.7891,-210.437 304.556,-205.886 304.556,-193.6224 304.556,-183.9456 294.7392,-179.0708 282.413,-178.9982"/>
<polygon fill="#000000" stroke="#000000" points="281.7558,-175.5446 272.1292,-179.9695 282.414,-182.5136 281.7558,-175.5446"/>
</g>
<!-- tools_csv_importer_check_result -->
<g id="node5" class="node">
<title>tools_csv_importer_check_result</title>
<ellipse fill="#ac4949" stroke="#000000" cx="244.7609" cy="-28.9914" rx="53.9813" ry="28.9828"/>
<text text-anchor="middle" x="244.7609" y="-37.4914" font-family="Helvetica,sans-Serif" font-size="10.00" fill="#ffffff">tools.</text>
<text text-anchor="middle" x="244.7609" y="-26.4914" font-family="Helvetica,sans-Serif" font-size="10.00" fill="#ffffff">csv_importer.</text>
<text text-anchor="middle" x="244.7609" y="-15.4914" font-family="Helvetica,sans-Serif" font-size="10.00" fill="#ffffff">check_result</text>
</g>
<!-- tools_logging&#45;&gt;tools_csv_importer_check_result -->
<g id="edge4" class="edge">
<title>tools_logging&#45;&gt;tools_csv_importer_check_result</title>
<path fill="none" stroke="#000000" d="M244.7609,-175.3749C244.7609,-149.6552 244.7609,-102.0965 244.7609,-68.1674"/>
<polygon fill="#000000" stroke="#000000" points="248.261,-68.1145 244.7609,-58.1146 241.261,-68.1146 248.261,-68.1145"/>
</g>
</g>
</svg>
